<svg xmlns="http://www.w3.org/2000/svg" xmlns:xlink="http://www.w3.org/1999/xlink" viewBox="0 0 512 512" width="512" height="512" style="width: 100%; height: 100%; transform: translate3d(0,0,0); content-visibility: visible;" preserveAspectRatio="xMidYMid meet"><defs><clipPath id="__lottie_element_2"><rect width="512" height="512" x="0" y="0"></rect></clipPath><clipPath id="__lottie_element_4"><path d="M0,0 L100,0 L100,100 L0,100z"></path></clipPath></defs><g clip-path="url(#__lottie_element_2)"><g clip-path="url(#__lottie_element_4)" style="display: block;" transform="matrix(5.119999885559082,0,0,5.119999885559082,0,0)" opacity="1"><g style="display: block;" transform="matrix(1.333299994468689,0,0,1.333299994468689,0,0)" opacity="1"><g opacity="1" transform="matrix(1,0,0,1,0,0)"><g opacity="1" transform="matrix(1,0,0,1,0,0)"><path fill="rgb(51,198,91)" fill-opacity="1" d=" M47.31999969482422,5.619999885559082 C47.31999969482422,5.619999885559082 27.68000030517578,5.619999885559082 27.68000030517578,5.619999885559082 C15.5,5.619999885559082 5.619999885559082,15.5 5.619999885559082,27.68000030517578 C5.619999885559082,27.68000030517578 5.619999885559082,47.31999969482422 5.619999885559082,47.31999969482422 C5.619999885559082,59.5 15.5,69.37999725341797 27.68000030517578,69.37999725341797 C27.68000030517578,69.37999725341797 47.31999969482422,69.37999725341797 47.31999969482422,69.37999725341797 C59.5,69.37999725341797 69.37999725341797,59.5 69.37999725341797,47.31999969482422 C69.37999725341797,47.31999969482422 69.37999725341797,27.68000030517578 69.37999725341797,27.68000030517578 C69.37999725341797,15.5 59.5,5.619999885559082 47.31999969482422,5.619999885559082 C47.31999969482422,5.619999885559082 47.31999969482422,5.619999885559082 47.31999969482422,5.619999885559082z"></path></g><g opacity="1" transform="matrix(1,0,0,1,0,0)"><path fill="rgb(255,255,255)" fill-opacity="1" d=" M43.84000015258789,36.91999816894531 C45.040000915527344,36.91999816894531 46,35.720001220703125 46,34.25 C46,32.779998779296875 45.040000915527344,31.579999923706055 43.84000015258789,31.579999923706055 C42.650001525878906,31.579999923706055 41.68000030517578,32.779998779296875 41.68000030517578,34.25 C41.68000030517578,35.720001220703125 42.650001525878906,36.91999816894531 43.84000015258789,36.91999816894531 C43.84000015258789,36.91999816894531 43.84000015258789,36.91999816894531 43.84000015258789,36.91999816894531z"></path></g><g opacity="1" transform="matrix(1,0,0,1,0,0)"><path fill="rgb(255,255,255)" fill-opacity="1" d=" M31,31.579999923706055 C29.809999465942383,31.579999923706055 28.84000015258789,32.779998779296875 28.84000015258789,34.25 C28.84000015258789,35.720001220703125 29.799999237060547,36.91999816894531 31,36.91999816894531 C32.20000076293945,36.91999816894531 33.15999984741211,35.720001220703125 33.15999984741211,34.25 C33.15999984741211,32.779998779296875 32.20000076293945,31.579999923706055 31,31.579999923706055 C31,31.579999923706055 31,31.579999923706055 31,31.579999923706055z"></path></g><g opacity="1" transform="matrix(1,0,0,1,0,0)"><path fill="rgb(255,255,255)" fill-opacity="1" d=" M20.889999389648438,29.65999984741211 C20.889999389648438,24.829999923706055 24.81999969482422,20.889999389648438 29.649999618530273,20.889999389648438 C29.649999618530273,20.889999389648438 45.34000015258789,20.889999389648438 45.34000015258789,20.889999389648438 C50.16999816894531,20.889999389648438 54.11000061035156,24.829999923706055 54.11000061035156,29.65999984741211 C54.11000061035156,29.65999984741211 54.11000061035156,39.2400016784668 54.11000061035156,39.2400016784668 C54.11000061035156,39.2400016784668 47.36000061035156,39.2400016784668 47.36000061035156,39.2400016784668 C44.310001373291016,39.2400016784668 41.540000915527344,40.90999984741211 40.09000015258789,43.59000015258789 C40.09000015258789,43.59000015258789 40.060001373291016,43.63999938964844 40.060001373291016,43.63999938964844 C40.060001373291016,43.63999938964844 40,43.63999938964844 40,43.63999938964844 C39.400001525878906,43.72999954223633 38.790000915527344,43.779998779296875 38.18000030517578,43.779998779296875 C35.22999954223633,43.779998779296875 32.439998626708984,42.77000045776367 30.90999984741211,41.13999938964844 C30.360000610351562,40.560001373291016 29.459999084472656,40.540000915527344 28.8700008392334,41.09000015258789 C28.290000915527344,41.63999938964844 28.260000228881836,42.540000915527344 28.809999465942383,43.130001068115234 C30.889999389648438,45.34000015258789 34.400001525878906,46.66999816894531 38.16999816894531,46.66999816894531 C38.459999084472656,46.66999816894531 38.72999954223633,46.66999816894531 39.0099983215332,46.650001525878906 C39.0099983215332,46.650001525878906 39.13999938964844,46.650001525878906 39.13999938964844,46.650001525878906 C39.13999938964844,46.650001525878906 39.119998931884766,46.77000045776367 39.119998931884766,46.77000045776367 C39.099998474121094,47.0099983215332 39.09000015258789,47.25 39.09000015258789,47.4900016784668 C39.09000015258789,47.4900016784668 39.09000015258789,54.11000061035156 39.09000015258789,54.11000061035156 C39.09000015258789,54.11000061035156 29.6200008392334,54.11000061035156 29.6200008392334,54.11000061035156 C24.790000915527344,54.11000061035156 20.860000610351562,50.18000030517578 20.860000610351562,45.349998474121094 C20.860000610351562,45.349998474121094 20.860000610351562,29.65999984741211 20.860000610351562,29.65999984741211 C20.860000610351562,29.65999984741211 20.889999389648438,29.65999984741211 20.889999389648438,29.65999984741211z M53.959999084472656,42.2599983215332 C53.08000183105469,48.33000183105469 48.220001220703125,53.150001525878906 42.13999938964844,53.97999954223633 C42.13999938964844,53.97999954223633 42.02000045776367,54 42.02000045776367,54 C42.02000045776367,54 42.02000045776367,47.4900016784668 42.02000045776367,47.4900016784668 C42.02000045776367,44.540000915527344 44.41999816894531,42.13999938964844 47.369998931884766,42.13999938964844 C47.369998931884766,42.13999938964844 53.97999954223633,42.13999938964844 53.97999954223633,42.13999938964844 C53.97999954223633,42.13999938964844 53.959999084472656,42.2599983215332 53.959999084472656,42.2599983215332z M18,45.34000015258789 C18,51.77000045776367 23.229999542236328,56.9900016784668 29.649999618530273,56.9900016784668 C29.649999618530273,56.9900016784668 40.25,56.9900016784668 40.25,56.9900016784668 C49.4900016784668,56.9900016784668 57,49.47999954223633 57,40.2400016784668 C57,40.2400016784668 57,29.639999389648438 57,29.639999389648438 C57,23.209999084472656 51.77000045776367,17.989999771118164 45.34000015258789,17.989999771118164 C45.34000015258789,17.989999771118164 29.649999618530273,17.989999771118164 29.649999618530273,17.989999771118164 C23.219999313354492,17.989999771118164 18,23.219999313354492 18,29.639999389648438 C18,29.639999389648438 18,45.34000015258789 18,45.34000015258789z"></path></g></g></g></g></g></svg>